# xmcd
#
# Track frame offsets:
#       150
#       19147
#       34501
#       54945
#       68268
#       91016
#       107314
#       125112
#       139881
#       160197
#       180711
#       214561
#       235339
#       261084
#       281827
#       306287
#       323923
#
# Disc length: 4656 seconds
#
# Revision: 0
# Processed by: cddbd v1.5.2PL0 Copyright (c) Steve Scherf et al.
# Submitted via: WaveLab 4.01
#
DISCID=e3122e11
DTITLE=Glorreiche Halunken - Live in Ferropolis
DYEAR=1900
DGENRE=
TTITLE0=Intro/28
TTITLE1=10 Jahre
TTITLE2=Finde die Wahrheit
TTITLE3=Ich bin in dir
TTITLE4=Terpentin
TTITLE5=Onkelz vs. Jesus
TTITLE6=Nur die Besten sterben jung
TTITLE7=Gehasst Verdammt Vergoettert
TTITLE8=Entfache dieses Feuer
TTITLE9=Leere Worte
TTITLE10=Zu nah an der Wahrheit
TTITLE11=Die Firma
TTITLE12=Auf gute Freunde
TTITLE13=Wir ham` noch lange nicht genug
TTITLE14=Stunde des Siegers
TTITLE15=Mexico
TTITLE16=Erinnerungen
EXTD=
EXTT0=
EXTT1=
EXTT2=
EXTT3=
EXTT4=
EXTT5=
EXTT6=
EXTT7=
EXTT8=
EXTT9=
EXTT10=
EXTT11=
EXTT12=
EXTT13=
EXTT14=
EXTT15=
EXTT16=
PLAYORDER=
